<!DOCTYPE svg PUBLIC "-//W3C//DTD SVG 1.1//EN" "http://www.w3.org/Graphics/SVG/1.1/DTD/svg11.dtd">
<!-- Uploaded to: SVG Repo, www.svgrepo.com, Transformed by: SVG Repo Mixer Tools -->
<svg width="256px" height="256px" viewBox="-23.04 -23.04 238.08 238.08" xmlns="http://www.w3.org/2000/svg" fill="none" transform="rotate(-45)" stroke="#ffffff">
<g id="SVGRepo_bgCarrier" stroke-width="0" transform="translate(0,0), scale(1)">
<rect x="-23.04" y="-23.04" width="238.08" height="238.08" rx="59.52" fill="#5165f6" strokewidth="0"/>
</g>
<g id="SVGRepo_tracerCarrier" stroke-linecap="round" stroke-linejoin="round" stroke="#CCCCCC" stroke-width="0.384"/>
<g id="SVGRepo_iconCarrier">
<path stroke="#ffffff" stroke-linecap="round" stroke-linejoin="round" stroke-width="14.4" d="m68 138-8 16c-10.19-4.246-20.742-8.492-31.96-15.8-3.912-2.549-6.284-6.88-6.378-11.548-.488-23.964 5.134-48.056 19.369-73.528 1.863-3.334 4.967-5.778 8.567-7.056C58.186 43.02 64.016 40.664 74 39l6 11s6-2 16-2 16 2 16 2l6-11c9.984 1.664 15.814 4.02 24.402 7.068 3.6 1.278 6.704 3.722 8.567 7.056 14.235 25.472 19.857 49.564 19.37 73.528-.095 4.668-2.467 8.999-6.379 11.548-11.218 7.308-21.769 11.554-31.96 15.8l-8-16m-68-8s20 10 40 10 40-10 40-10"/>
<ellipse cx="71" cy="101" fill="#ffffff" rx="13" ry="15"/>
<ellipse cx="121" cy="101" fill="#ffffff" rx="13" ry="15"/>
</g>
</svg>